PathFileType	4	(X/Y/Z)	S01_0012_Gait_markers.trc
DataRate	CameraRate	NumFrames	NumMarkers	Units	OrigDataRate	OrigDataStartFrame	OrigNumFrames
250.000000	250.000000	4	54	mm	250.000000	160	321
Frame#	Time	HEAD_ANT			R_HEAD			L_HEAD			C7			R_BACK			L_BACK			STERNUM			R_ACROMION			R_HUM_PROX			R_HUM_ANT			R_HUM_POST			R_ELBOW_LAT			R_ELBOW_MED			R_FOREARM			R_WIRST_LAT			R_WRITS_MED			R_HAND			L_ACROMION			L_HUM_PROX			L_HUM_ANT			L_HUM_POST			L_ELBOW_LAT			L_ELBOW_MED			L_FOREARM			L_WRIST_LAT			L_WIRST_MED			L_HAND			R_ILIAC			SACRUM			L_ILIAC			R_GTROCH			R_THIGH__1			R_THIGH_2			R_THIGH_3			R_THIGH_4			R_SHANK_1			R_SHANK_2			R_SHANK_3			R_SHANK_4			R_HEEL			R_FOOT_LAT			R_FOOT_MED			L_GTROCH			L_THIGH_1			L_THIGH_2			L_THIGH_3			L_THIGH_4			L_SHANK_1			L_SHANK_2			L_SHANK_3			L_SHANK_4			L_HEEL			L_FOOT_LAT			L_FOOT_MED			
		X1	Y1	Z1	X2	Y2	Z2	X3	Y3	Z3	X4	Y4	Z4	X5	Y5	Z5	X6	Y6	Z6	X7	Y7	Z7	X8	Y8	Z8	X9	Y9	Z9	X10	Y10	Z10	X11	Y11	Z11	X12	Y12	Z12	X13	Y13	Z13	X14	Y14	Z14	X15	Y15	Z15	X16	Y16	Z16	X17	Y17	Z17	X18	Y18	Z18	X19	Y19	Z19	X20	Y20	Z20	X21	Y21	Z21	X22	Y22	Z22	X23	Y23	Z23	X24	Y24	Z24	X25	Y25	Z25	X26	Y26	Z26	X27	Y27	Z27	X28	Y28	Z28	X29	Y29	Z29	X30	Y30	Z30	X31	Y31	Z31	X32	Y32	Z32	X33	Y33	Z33	X34	Y34	Z34	X35	Y35	Z35	X36	Y36	Z36	X37	Y37	Z37	X38	Y38	Z38	X39	Y39	Z39	X40	Y40	Z40	X41	Y41	Z41	X42	Y42	Z42	X43	Y43	Z43	X44	Y44	Z44	X45	Y45	Z45	X46	Y46	Z46	X47	Y47	Z47	X48	Y48	Z48	X49	Y49	Z49	X50	Y50	Z50	X51	Y51	Z51	X52	Y52	Z52	X53	Y53	Z53	X54	Y54	Z54	

161	0.64	1073.86376953125	1712.706665039062	-333.7507629394527	1018.440368652344	1659.234497070312	-254.6068725585934	1016.911560058594	1659.838500976562	-402.511566162109	877.6902465820312	1489.851684570312	-323.6650390624997	803.2310791015625	1298.94384765625	-249.7597503662107	796.28271484375	1299.4853515625	-390.2878417968747	1053.459106445312	1321.936157226562	-334.8901062011716	965.0791625976562	1440.181030273438	-158.2837371826169	948.7893676757812	1283.809204101562	-63.47529602050753	1017.024169921875	1202.787109375	-70.93054962158176	899.4674682617188	1196.456420898438	-38.13409423828099	956.7420043945312	1092.78955078125	-39.11574172973609	917.9178466796875	1083.706665039062	-113.8264694213865	1095.764282226562	938.7282104492188	-68.66013336181619	1140.954956054688	888.4341430664062	-117.4449691772459	1090.647583007812	844.48779296875	-71.30812072753888	1179.452514648438	803.9509887695312	-74.30003356933575	946.9557495117188	1443.876342773438	-495.5018310546872	901.7868041992188	1280.845825195313	-589.8256225585934	955.3650512695312	1194.589965820313	-598.3472900390623	832.331787109375	1209.592529296875	-609.4656982421873	881.8197631835938	1099.65576171875	-623.4409179687498	833.208251953125	1098.274047851563	-561.9561767578123	971.15478515625	916.2011108398439	-619.919738769531	1003.953247070312	853.9140625000001	-571.328674316406	951.0695190429688	835.4938354492189	-630.442687988281	1024.3955078125	772.6801757812501	-619.3518066406248	927.2527465820312	1042.549682617188	-155.2546234130857	810.0149536132812	1010.519775390625	-336.0639953613279	937.3787231445312	1031.939208984375	-502.0108947753904	865.8917846679688	914.7431640625	-145.4565734863279	815.7225341796875	649.1964721679688	-161.861846923828	873.9480590820312	646.43701171875	-154.1026000976561	847.4472045898438	547.59619140625	-186.4543914794921	788.3706665039062	573.753173828125	-181.9027709960936	668.4351196289062	376.1062316894532	-179.7900848388671	706.0986328125	331.4108581542969	-194.1585693359374	660.6053466796875	260.2178039550782	-214.1929931640624	608.7595825195312	296.5676269531251	-203.8262481689453	470.1041259765625	140.4930114746094	-287.0235595703124	591.9488525390625	24.38014602661137	-211.6306457519531	654.859130859375	28.46999549865729	-306.9718627929688	917.9271850585938	914.2793579101564	-508.0611877441404	1100.732055664062	670.8838500976564	-489.1919860839842	1045.298950195312	667.2106323242189	-509.8065490722655	1068.297119140625	568.2036132812501	-472.5239257812499	1125.072021484375	595.8982543945314	-459.3499450683593	1180.12060546875	332.8055725097657	-459.0384826660156	1131.879150390625	295.7674560546876	-463.7287902832031	1154.295776367188	212.2550354003907	-445.9154663085937	1212.901123046875	237.2894744873048	-438.0918273925781	1167.24365234375	32.67811203002938	-377.2049560546875	1346.72314453125	37.16365432739268	-439.9369201660156	1377.507568359375	61.14615249633797	-344.9354553222656	
162	0.644	1079.719116210938	1712.550415039062	-334.8928833007809	1024.562866210938	1659.161254882812	-255.6222229003903	1023.115295410156	1659.339477539062	-403.4056396484372	883.7118530273438	1489.44287109375	-324.5429382324215	809.2955322265625	1298.494384765625	-250.9237060546872	802.5772094726562	1299.1318359375	-390.5440368652341	1059.750610351562	1321.616088867188	-335.4322204589841	971.0298461914062	1439.812744140625	-158.9458312988278	954.6874389648438	1283.362182617188	-64.13818359374972	1022.825744628906	1202.20458984375	-71.69902801513645	905.2955322265625	1195.979370117188	-39.15110015869114	962.446044921875	1092.313842773438	-39.99882507324195	923.9454956054688	1083.09375	-114.8093948364255	1101.173583984375	937.7525634765625	-68.95248413085916	1146.4033203125	887.32373046875	-117.5801696777342	1095.71826171875	843.6654663085938	-71.47194671630841	1184.373291015625	802.8247680664062	-74.24800109863263	953.1906127929688	1443.25146484375	-496.4428100585934	908.1734619140625	1280.065063476563	-590.4552001953122	961.8920288085938	1193.90673828125	-598.581359863281	838.8934326171875	1208.939453125	-609.894348144531	887.9700317382812	1098.866943359375	-623.9891967773435	839.6163330078125	1097.472778320313	-562.3014526367185	977.4405517578125	915.3667602539064	-620.392395019531	1010.285034179688	853.0000610351564	-571.877746582031	957.2849731445312	834.7360839843751	-630.978576660156	1030.614624023438	771.8696899414064	-619.6810913085935	933.6104125976562	1041.96533203125	-155.9295349121091	816.690673828125	1010.336853027344	-336.5086975097654	944.6118774414062	1031.517578125	-502.4188232421873	872.51123046875	913.9671020507812	-146.2500915527342	823.1568603515625	648.2765502929688	-162.1929779052733	881.2830200195312	645.78466796875	-154.5980377197264	854.9498901367188	546.4157104492188	-186.8265533447264	795.7838134765625	572.7063598632812	-182.3511962890624	674.7404174804688	376.7376098632813	-179.4662322998046	711.6498413085938	331.3667602539063	-193.9925231933593	664.99560546875	260.8732910156251	-213.6936645507812	613.8032836914062	298.1021728515626	-203.0878295898437	473.041748046875	144.0136260986329	-285.5712585449218	592.757080078125	24.89668846130376	-211.3907165527344	654.9235229492188	28.47146797180183	-306.9403686523438	925.0552978515625	914.2797851562501	-508.7494812011716	1108.53125	671.8169555664064	-489.0287475585936	1053.23046875	668.2370605468751	-509.9079589843748	1075.960815429688	569.2956542968751	-472.624786376953	1132.649658203125	596.6151733398439	-459.196319580078	1186.308959960938	332.8785705566407	-458.7048034667968	1137.38427734375	296.3052368164064	-462.8494262695312	1159.326293945312	212.6929931640626	-445.5657043457031	1218.148071289062	237.1635131835938	-437.6068420410156	1168.366577148438	33.72093963623055	-377.270263671875	1347.82666015625	33.3716926574708	-439.7745056152344	1379.672729492188	56.68441390991219	-344.7836303710938	
163	0.648	1085.694213867188	1712.551635742188	-335.9661865234371	1030.57177734375	1659.109375	-256.7336730957028	1029.087036132812	1659.105346679688	-404.5011901855465	889.796630859375	1489.100952148438	-325.2177124023434	815.4917602539062	1298.192993164062	-252.0718841552732	808.8074340820312	1298.754272460938	-391.2024230957028	1066.073486328125	1321.542114257812	-336.1835327148435	976.9469604492188	1439.450927734375	-159.6208190917966	960.600830078125	1282.948486328125	-64.96587371826143	1028.572998046875	1201.743774414062	-72.52908325195285	910.9097290039062	1195.648803710938	-40.15313720703099	968.0879516601562	1091.8232421875	-40.99487686157202	929.7777709960938	1082.726318359375	-115.845031738281	1106.50341796875	936.99560546875	-69.18692016601541	1151.632934570312	886.314453125	-117.675582885742	1100.823364257812	842.8583984375	-71.7525100708006	1189.204223632812	801.763427734375	-74.13931274414044	959.4583740234375	1442.80078125	-497.1968994140622	914.5745239257812	1279.4697265625	-590.9489746093748	968.410400390625	1193.369750976563	-598.9831542968748	845.3106079101562	1208.343505859375	-610.4428710937498	894.6392211914062	1098.150268554688	-624.298400878906	846.1550903320312	1096.71533203125	-562.678039550781	983.7628784179688	914.5744018554689	-620.8779296874998	1016.489318847656	852.1419677734376	-572.1768798828123	963.542724609375	833.9757690429689	-631.198059082031	1036.898803710938	771.0151367187501	-619.9999389648435	939.6627197265625	1041.3125	-156.0040740966795	823.1920776367188	1010.115173339844	-336.8438415527341	951.923095703125	1031.198486328125	-503.1242370605466	879.0397338867188	913.0470581054688	-146.9332580566404	830.5672607421875	647.3290405273438	-162.7399291992186	888.8948974609375	644.880615234375	-155.0114898681639	862.5996704101562	545.42578125	-187.2778320312499	803.448974609375	571.5733642578125	-182.7689666748046	681.279296875	377.3119506835938	-179.116714477539	717.4711303710938	331.5205993652344	-193.8152313232421	669.77490234375	261.6850280761719	-213.1434478759765	619.1536254882812	299.5215759277344	-202.4429168701171	476.3049011230469	147.6561737060547	-283.9365234374999	593.6033935546875	25.52692222595219	-211.2789611816406	654.9953002929688	28.46652603149421	-306.8917541503906	932.5966796875	914.3172607421876	-509.5075988769529	1116.473388671875	672.4832763671876	-488.0374755859373	1061.136962890625	669.5099487304689	-509.8746948242186	1083.483642578125	570.1364746093751	-472.4305419921874	1140.35302734375	597.4193725585939	-458.9073181152343	1192.774047851562	333.146209716797	-458.5507812499999	1143.505126953125	297.4277648925782	-462.4236145019531	1164.407958984375	213.2750549316407	-445.2320861816406	1223.487426757812	237.1140899658204	-437.5193176269531	1169.609375	34.69557189941415	-377.3214721679688	1348.465698242188	30.49070358276377	-440.4503784179688	1381.221923828125	53.56579971313484	-344.8307189941406	
164	0.652	1091.668090820312	1712.780029296875	-337.058441162109	1036.6083984375	1659.287475585938	-257.808441162109	1035.133422851562	1659.01416015625	-405.6019897460934	895.8956298828125	1488.753540039062	-326.2409973144528	821.7481689453125	1297.894165039062	-252.9982147216794	814.974853515625	1298.7001953125	-391.6365661621091	1072.431274414062	1321.420532226562	-336.5875854492185	982.9134521484375	1439.432739257812	-160.278884887695	966.3318481445312	1282.565795898438	-65.69406890869112	1034.298706054688	1201.44580078125	-73.17851257324192	916.6033325195312	1195.376220703125	-41.20088195800755	973.7595825195312	1091.472778320312	-42.02230453491187	935.7443237304688	1082.369140625	-116.8174819946287	1111.758056640625	936.0048217773438	-69.60872650146463	1156.984497070312	885.3079223632812	-117.7554397583006	1105.932739257812	842.3677368164062	-72.06916809082013	1193.87841796875	800.7313232421875	-73.57318115234357	965.7922973632812	1442.413696289062	-497.9406433105465	921.07763671875	1278.88623046875	-591.4805908203123	975.03125	1192.803833007813	-599.3251953124998	851.9777221679688	1207.707641601563	-611.133117675781	901.3497924804688	1097.502807617188	-624.4523315429685	852.6915893554688	1096.151123046875	-563.1372070312498	990.1812744140625	913.9172363281251	-621.2289428710935	1022.818969726562	851.4660034179689	-572.6212768554685	969.7965698242188	833.2642822265626	-631.5361328124998	1042.973266601562	770.3367309570314	-620.5019531249998	946.3662109375	1040.689819335938	-156.5939941406248	829.7342529296875	1010.071899414063	-337.1239318847654	959.0166625976562	1031.001220703125	-503.6966247558591	885.80615234375	912.2552490234375	-147.4929351806639	838.2454223632812	646.3536376953125	-163.369674682617	896.550048828125	643.8582763671875	-155.6311798095702	870.4696655273438	544.4760131835938	-187.6787719726561	811.2805786132812	570.5501708984375	-183.1759185791014	687.9210815429688	378.0441589355469	-178.8893890380859	723.4400634765625	331.6232910156251	-193.464874267578	674.785400390625	262.5216979980469	-212.6419982910156	624.613525390625	301.0655212402344	-201.9304046630859	479.6944885253906	151.4478454589844	-282.5173645019531	594.5037231445312	26.18298721313481	-211.1063995361328	655.0924682617188	28.46098327636726	-306.8858032226562	941.6270751953125	915.2791137695314	-510.1923522949216	1124.344116210938	673.7573852539064	-487.8572692871092	1068.910766601562	670.7257080078126	-509.3783569335936	1091.422485351562	571.4258422851564	-472.4157714843749	1148.283447265625	598.6643066406251	-458.7974548339843	1199.404296875	333.3981018066407	-458.3513793945312	1149.447631835938	298.2785644531251	-462.1950378417968	1169.087524414062	214.1209259033204	-445.2581176757812	1228.516967773438	236.9494934082032	-437.3566894531249	1170.8564453125	35.5523223876954	-377.3481750488281	1349.267700195312	28.80174827575694	-441.1983337402344	1382.45361328125	51.14111328125008	-344.9595031738281	
